HIERARCHY
ROOT Hips
{
  OFFSET -44.4388 94.7082 -292.216
  CHANNELS 6 Xposition Yposition Zposition Zrotation Xrotation Yrotation
  JOINT LeftUpLeg
  {
    OFFSET 8.91 -6.27 -2.145
    CHANNELS 6 Xposition Yposition Zposition Zrotation Xrotation Yrotation
    JOINT LeftUpLegRoll
    {
      OFFSET 0 -22.7323 0
      CHANNELS 6 Xposition Yposition Zposition Zrotation Xrotation Yrotation
      JOINT LeftLeg
      {
        OFFSET 0 -22.1464 0
        CHANNELS 6 Xposition Yposition Zposition Zrotation Xrotation Yrotation
        JOINT LeftLegRoll
        {
          OFFSET 0 -22.0919 0
          CHANNELS 6 Xposition Yposition Zposition Zrotation Xrotation Yrotation
          JOINT LeftFoot
          {
            OFFSET 0 -18.609 0
            CHANNELS 6 Xposition Yposition Zposition Zrotation Xrotation Yrotation
            JOINT LeftToeBase
            {
              OFFSET 0 -6.26232 12.9547
              CHANNELS 6 Xposition Yposition Zposition Zrotation Xrotation Yrotation
              End Site
              {
                OFFSET 0 0 5.96686
              }
            }
          }
        }
      }
    }
  }
  JOINT RightUpLeg
  {
    OFFSET -8.91 -6.27 -2.145
    CHANNELS 6 Xposition Yposition Zposition Zrotation Xrotation Yrotation
    JOINT RightUpLegRoll
    {
      OFFSET 0 -22.7323 0
      CHANNELS 6 Xposition Yposition Zposition Zrotation Xrotation Yrotation
      JOINT RightLeg
      {
        OFFSET 0 -22.1464 0
        CHANNELS 6 Xposition Yposition Zposition Zrotation Xrotation Yrotation
        JOINT RightLegRoll
        {
          OFFSET 0 -22.0919 0
          CHANNELS 6 Xposition Yposition Zposition Zrotation Xrotation Yrotation
          JOINT RightFoot
          {
            OFFSET 0 -18.609 0
            CHANNELS 6 Xposition Yposition Zposition Zrotation Xrotation Yrotation
            JOINT RightToeBase
            {
              OFFSET 0 -6.26232 12.9547
              CHANNELS 6 Xposition Yposition Zposition Zrotation Xrotation Yrotation
              End Site
              {
                OFFSET 0 0.000942417 5.96686
              }
            }
          }
        }
      }
    }
  }
  JOINT Spine
  {
    OFFSET 0 7.43174 -2.06162
    CHANNELS 6 Xposition Yposition Zposition Zrotation Xrotation Yrotation
    JOINT Spine1
    {
      OFFSET -1.68772e-005 12.1899 -1.41951
      CHANNELS 6 Xposition Yposition Zposition Zrotation Xrotation Yrotation
      JOINT Spine2
      {
        OFFSET 0 11.8846 -1.0903
        CHANNELS 6 Xposition Yposition Zposition Zrotation Xrotation Yrotation
        JOINT Spine3
        {
          OFFSET 1.84329e-005 10.5137 1.04001
          CHANNELS 6 Xposition Yposition Zposition Zrotation Xrotation Yrotation
          JOINT LeftShoulder
          {
            OFFSET 7 4.56855 2.0674
            CHANNELS 6 Xposition Yposition Zposition Zrotation Xrotation Yrotation
            JOINT LeftArm
            {
              OFFSET 10.7073 0 0
              CHANNELS 6 Xposition Yposition Zposition Zrotation Xrotation Yrotation
              JOINT LeftArmRoll
              {
                OFFSET 15.2612 0 0
                CHANNELS 6 Xposition Yposition Zposition Zrotation Xrotation Yrotation
                JOINT LeftForeArm
                {
                  OFFSET 12.0443 0 0
                  CHANNELS 6 Xposition Yposition Zposition Zrotation Xrotation Yrotation
                  JOINT LeftForeArmRoll
                  {
                    OFFSET 16.3277 0 0
                    CHANNELS 6 Xposition Yposition Zposition Zrotation Xrotation Yrotation
                    JOINT LeftHand
                    {
                      OFFSET 10.3694 0 0
                      CHANNELS 6 Xposition Yposition Zposition Zrotation Xrotation Yrotation
                      JOINT LeftHandThumb1
                      {
                        OFFSET 4.34876 -0.798502 4.28243
                        CHANNELS 6 Xposition Yposition Zposition Zrotation Xrotation Yrotation
                        JOINT LeftHandThumb2
                        {
                          OFFSET 2.51259 -0.536099 0.707454
                          CHANNELS 6 Xposition Yposition Zposition Zrotation Xrotation Yrotation
                          JOINT LeftHandThumb3
                          {
                            OFFSET 2.54314 0 0
                            CHANNELS 6 Xposition Yposition Zposition Zrotation Xrotation Yrotation
                            JOINT LeftHandThumb4
                            {
                              OFFSET 2.66675 0 0
                              CHANNELS 6 Xposition Yposition Zposition Zrotation Xrotation Yrotation
                              End Site
                              {
                                OFFSET 0 0 0
                              }
                            }
                          }
                        }
                      }
                      JOINT LeftHandIndex1
                      {
                        OFFSET 8.82198 0.199729 3.47167
                        CHANNELS 6 Xposition Yposition Zposition Zrotation Xrotation Yrotation
                        JOINT LeftHandIndex2
                        {
                          OFFSET 4.22532 0 -0.000262656
                          CHANNELS 6 Xposition Yposition Zposition Zrotation Xrotation Yrotation
                          JOINT LeftHandIndex3
                          {
                            OFFSET 2.65394 0 -0.00016516
                            CHANNELS 6 Xposition Yposition Zposition Zrotation Xrotation Yrotation
                            JOINT LeftHandIndex4
                            {
                              OFFSET 1.95822 0 -0.00012217
                              CHANNELS 6 Xposition Yposition Zposition Zrotation Xrotation Yrotation
                              End Site
                              {
                                OFFSET 0 0 0
                              }
                            }
                          }
                        }
                      }
                      JOINT LeftHandMiddle1
                      {
                        OFFSET 8.80988 0.50089 1.30468
                        CHANNELS 6 Xposition Yposition Zposition Zrotation Xrotation Yrotation
                        JOINT LeftHandMiddle2
                        {
                          OFFSET 4.86325 0 0
                          CHANNELS 6 Xposition Yposition Zposition Zrotation Xrotation Yrotation
                          JOINT LeftHandMiddle3
                          {
                            OFFSET 2.76524 0 0
                            CHANNELS 6 Xposition Yposition Zposition Zrotation Xrotation Yrotation
                            JOINT LeftHandMiddle4
                            {
                              OFFSET 2.00563 0 0
                              CHANNELS 6 Xposition Yposition Zposition Zrotation Xrotation Yrotation
                              End Site
                              {
                                OFFSET 0 0 0
                              }
                            }
                          }
                        }
                      }
                      JOINT LeftHandRing1
                      {
                        OFFSET 8.89376 0.37992 -0.793159
                        CHANNELS 6 Xposition Yposition Zposition Zrotation Xrotation Yrotation
                        JOINT LeftHandRing2
                        {
                          OFFSET 4.53776 0 -0.000282138
                          CHANNELS 6 Xposition Yposition Zposition Zrotation Xrotation Yrotation
                          JOINT LeftHandRing3
                          {
                            OFFSET 2.30453 0 -0.000143448
                            CHANNELS 6 Xposition Yposition Zposition Zrotation Xrotation Yrotation
                            JOINT LeftHandRing4
                            {
                              OFFSET 1.92335 0 -0.00012044
                              CHANNELS 6 Xposition Yposition Zposition Zrotation Xrotation Yrotation
                              End Site
                              {
                                OFFSET 0 0 0
                              }
                            }
                          }
                        }
                      }
                      JOINT LeftHandPinky1
                      {
                        OFFSET 8.88227 -0.313027 -2.49036
                        CHANNELS 6 Xposition Yposition Zposition Zrotation Xrotation Yrotation
                        JOINT LeftHandPinky2
                        {
                          OFFSET 3.0441 0 0
                          CHANNELS 6 Xposition Yposition Zposition Zrotation Xrotation Yrotation
                          JOINT LeftHandPinky3
                          {
                            OFFSET 1.9745 0 0
                            CHANNELS 6 Xposition Yposition Zposition Zrotation Xrotation Yrotation
                            JOINT LeftHandPinky4
                            {
                              OFFSET 1.66661 0 0
                              CHANNELS 6 Xposition Yposition Zposition Zrotation Xrotation Yrotation
                              End Site
                              {
                                OFFSET 0 0 0
                              }
                            }
                          }
                        }
                      }
                    }
                  }
                }
              }
            }
          }
          JOINT RightShoulder
          {
            OFFSET -7 4.56855 2.0673
            CHANNELS 6 Xposition Yposition Zposition Zrotation Xrotation Yrotation
            JOINT RightArm
            {
              OFFSET -10.7073 0 0
              CHANNELS 6 Xposition Yposition Zposition Zrotation Xrotation Yrotation
              JOINT RightArmRoll
              {
                OFFSET -15.2612 0 0
                CHANNELS 6 Xposition Yposition Zposition Zrotation Xrotation Yrotation
                JOINT RightForeArm
                {
                  OFFSET -12.0444 0 0
                  CHANNELS 6 Xposition Yposition Zposition Zrotation Xrotation Yrotation
                  JOINT RightForeArmRoll
                  {
                    OFFSET -16.3276 0 0
                    CHANNELS 6 Xposition Yposition Zposition Zrotation Xrotation Yrotation
                    JOINT RightHand
                    {
                      OFFSET -10.3694 0 0
                      CHANNELS 6 Xposition Yposition Zposition Zrotation Xrotation Yrotation
                      JOINT RightHandThumb1
                      {
                        OFFSET -4.34838 -0.798501 4.28282
                        CHANNELS 6 Xposition Yposition Zposition Zrotation Xrotation Yrotation
                        JOINT RightHandThumb2
                        {
                          OFFSET -2.51253 -0.536099 0.707679
                          CHANNELS 6 Xposition Yposition Zposition Zrotation Xrotation Yrotation
                          JOINT RightHandThumb3
                          {
                            OFFSET -2.54159 0 0.0888232
                            CHANNELS 6 Xposition Yposition Zposition Zrotation Xrotation Yrotation
                            JOINT RightHandThumb4
                            {
                              OFFSET -2.66512 0 0.0931403
                              CHANNELS 6 Xposition Yposition Zposition Zrotation Xrotation Yrotation
                              End Site
                              {
                                OFFSET 0 0 0
                              }
                            }
                          }
                        }
                      }
                      JOINT RightHandIndex1
                      {
                        OFFSET -8.82167 0.199732 3.47246
                        CHANNELS 6 Xposition Yposition Zposition Zrotation Xrotation Yrotation
                        JOINT RightHandIndex2
                        {
                          OFFSET -4.22532 0 0.0001146
                          CHANNELS 6 Xposition Yposition Zposition Zrotation Xrotation Yrotation
                          JOINT RightHandIndex3
                          {
                            OFFSET -2.65394 0 7.19601e-005
                            CHANNELS 6 Xposition Yposition Zposition Zrotation Xrotation Yrotation
                            JOINT RightHandIndex4
                            {
                              OFFSET -1.95822 0 5.30956e-005
                              CHANNELS 6 Xposition Yposition Zposition Zrotation Xrotation Yrotation
                              End Site
                              {
                                OFFSET 0 0 0
                              }
                            }
                          }
                        }
                      }
                      JOINT RightHandMiddle1
                      {
                        OFFSET -8.80976 0.500893 1.30547
                        CHANNELS 6 Xposition Yposition Zposition Zrotation Xrotation Yrotation
                        JOINT RightHandMiddle2
                        {
                          OFFSET -4.86325 0 0.000131881
                          CHANNELS 6 Xposition Yposition Zposition Zrotation Xrotation Yrotation
                          JOINT RightHandMiddle3
                          {
                            OFFSET -2.76524 0 7.49854e-005
                            CHANNELS 6 Xposition Yposition Zposition Zrotation Xrotation Yrotation
                            JOINT RightHandMiddle4
                            {
                              OFFSET -2.00563 0 5.43888e-005
                              CHANNELS 6 Xposition Yposition Zposition Zrotation Xrotation Yrotation
                              End Site
                              {
                                OFFSET 0 0 0
                              }
                            }
                          }
                        }
                      }
                      JOINT RightHandRing1
                      {
                        OFFSET -8.89383 0.379922 -0.792364
                        CHANNELS 6 Xposition Yposition Zposition Zrotation Xrotation Yrotation
                        JOINT RightHandRing2
                        {
                          OFFSET -4.53776 0 0.000123049
                          CHANNELS 6 Xposition Yposition Zposition Zrotation Xrotation Yrotation
                          JOINT RightHandRing3
                          {
                            OFFSET -2.30453 0 6.24859e-005
                            CHANNELS 6 Xposition Yposition Zposition Zrotation Xrotation Yrotation
                            JOINT RightHandRing4
                            {
                              OFFSET -1.92335 0 5.21537e-005
                              CHANNELS 6 Xposition Yposition Zposition Zrotation Xrotation Yrotation
                              End Site
                              {
                                OFFSET 0 0 0
                              }
                            }
                          }
                        }
                      }
                      JOINT RightHandPinky1
                      {
                        OFFSET -8.8825 -0.313025 -2.48956
                        CHANNELS 6 Xposition Yposition Zposition Zrotation Xrotation Yrotation
                        JOINT RightHandPinky2
                        {
                          OFFSET -3.0478 0 8.26466e-005
                          CHANNELS 6 Xposition Yposition Zposition Zrotation Xrotation Yrotation
                          JOINT RightHandPinky3
                          {
                            OFFSET -1.9769 0 5.36145e-005
                            CHANNELS 6 Xposition Yposition Zposition Zrotation Xrotation Yrotation
                            JOINT RightHandPinky4
                            {
                              OFFSET -1.66864 0 4.5245e-005
                              CHANNELS 6 Xposition Yposition Zposition Zrotation Xrotation Yrotation
                              End Site
                              {
                                OFFSET 0 0 0
                              }
                            }
                          }
                        }
                      }
                    }
                  }
                }
              }
            }
          }
          JOINT Neck
          {
            OFFSET 0 11.5156 1.94702
            CHANNELS 6 Xposition Yposition Zposition Zrotation Xrotation Yrotation
            JOINT Head
            {
              OFFSET -1.26215e-005 11.0733 1.65432
              CHANNELS 6 Xposition Yposition Zposition Zrotation Xrotation Yrotation
              End Site
              {
                OFFSET 0 17.7047 0
              }
            }
          }
        }
      }
    }
  }
}
MOTION
Frames:	2
Frame Time:	0.0333333
-35.9881 89.8135 -87.6898 -1.09245 5.49536 -7.85536 8.91 -6.27 -2.145 4.29455 -42.9332 5.7442 -8.88178e-015 -22.7323 -4.71169e-007 1.26603e-020 -9.42516e-018 0.153925 -1.24345e-014 -22.1464 5.17666e-008 -3.2193e-007 51.1378 7.00557 -8.88178e-015 -22.0919 1.36431e-008 1.03589e-019 2.696e-017 -0.440295 -1.42109e-014 -18.609 1.69696e-008 -0.378471 -11.4939 -0.0380897 5.32907e-015 -6.26232 12.9547 0.0976915 -0.0312512 5.32846e-005 -8.91 -6.27 -2.145 -6.14639 -4.67424 -3.52814 -2.71633e-006 -22.7323 -4.51374e-007 9.69333e-019 8.24657e-017 -1.34689 -4.24549e-013 -22.1464 1.4554e-008 -4.74394e-006 64.214 11.3479 9.19562e-007 -22.0919 4.09714e-008 1.41529e-021 3.15129e-018 -0.0514646 -3.606e-013 -18.609 -7.98564e-010 -3.10516 7.47198 0.198605 -6.4416e-011 -6.26232 12.9547 0.00291259 9.13911e-008 -4.64581e-012 2.32301e-006 7.43174 -2.06162 -3.75572 2.74965 2.58486 -1.68772e-005 12.1899 -1.41951 -1.46545 -0.604659 2.23974 -3.87879e-006 11.8846 -1.0903 -1.54591 -0.641815 2.17237 1.84329e-005 10.5137 1.04001 -1.62661 -0.671165 2.10145 7 4.56855 2.0674 -15.476 0 -4.64888 10.7073 -5.08749e-012 -5.32907e-015 -53.464 -3.22293 16.0623 15.2612 3.95062e-012 1.16365e-008 0 -0.535546 0 12.0443 -1.25056e-012 2.87898e-009 44.3084 56.8749 -49.3722 16.3277 2.84217e-012 -1.18649e-008 -0 0.11948 0 10.3694 3.12639e-013 2.29894e-008 -8.57498 0.699349 -9.30788 4.34876 -0.798502 4.28243 -13.5736 2.3752 -6.52975 2.51259 -0.536099 0.707454 -13.0045 -0.450229 1.94868 2.54314 9.9476e-013 9.34198e-006 4.81085 0 0 2.66675 -1.27898e-012 -8.21025e-006 -0 0 0 8.82198 0.199729 3.47167 -6.25456 -0.217979 -0.988709 4.22532 4.83737e-011 -0.000262656 -24.2901 0 0 2.65394 2.98712e-011 -0.00016516 0.57528 0 0 1.95822 2.2311e-011 -0.00012217 -0 0 0 8.80988 0.50089 1.30468 -2.07624 -0.072488 0.696752 4.86325 1.10845e-012 6.11217e-012 -20.7026 0 0 2.76524 3.69482e-013 -1.91784e-007 -44.5865 0 0 2.00563 -8.52651e-013 -1.13863e-006 -0 0 0 8.89376 0.37992 -0.793159 -2.20131 -0.0768525 4.84624 4.53776 8.2423e-013 -0.000282138 -21.8296 0 0 2.30453 0 -0.000143448 -14.6665 0 0 1.92335 -4.26326e-013 -0.00012044 -0 0 0 8.88227 -0.313027 -2.49036 -5.93045 -0.206725 9.76289 3.0441 -2.04636e-012 1.33227e-015 -15.3276 0 0 1.9745 2.84217e-013 -1.43329e-007 -6.30469 0 0 1.66661 1.64846e-012 7.91347e-007 -0 0 0 -7 4.56855 2.0673 25.6167 1.97009e-015 18.9556 -10.7073 5.20117e-012 2.04281e-014 46.8883 2.86265 -4.96445 -15.2612 -6.33804e-012 1.86659e-008 2.58696e-016 2.15183 2.58696e-016 -12.0444 -8.46967e-012 -7.98782e-009 -22.6251 36.6928 34.8959 -16.3276 -1.11982e-011 -2.36264e-008 -7.46305e-006 0.017672 -2.70878e-006 -10.3694 -8.52651e-014 1.64166e-008 -3.67483 -0.433608 13.4543 -4.34838 -0.798501 4.28282 13.5708 2.37543 6.53083 -2.51253 -0.536099 0.707679 12.2541 -0.424661 -1.95441 -2.54159 2.76827e-011 0.0888232 -4.62886 0 0 -2.66512 1.86731e-011 0.0931403 0 0 -0 -8.82167 0.199732 3.47246 6.25427 -0.217969 0.987584 -4.22532 2.47269e-012 0.0001146 24.2901 0 0 -2.65394 1.39266e-012 7.19601e-005 -0.575254 0 0 -1.95822 1.36424e-012 5.30956e-005 0 0 -0 -8.80976 0.500893 1.30547 2.0468 -0.0714606 1.29033 -4.86325 -1.3074e-012 0.000131881 20.7146 0 0 -2.76524 1.76215e-012 7.49854e-005 44.6321 0 0 -2.00563 0 5.43888e-005 0 0 -0 -8.89383 0.379922 -0.792364 2.1949 -0.0766289 -2.84982 -4.53776 4.09273e-012 0.000123049 21.829 0 0 -2.30453 4.12115e-012 6.24859e-005 14.7472 0 0 -1.92335 7.38964e-013 5.21537e-005 0 0 -0 -8.8825 -0.313025 -2.48956 5.8295 -0.203219 -7.76773 -3.0478 -6.65921e-011 8.26466e-005 15.3824 0 0 -1.9769 -3.85683e-011 5.36145e-005 6.55881 0 0 -1.66864 -3.54419e-011 4.5245e-005 0 0 -0 2.32301e-006 11.5156 1.94702 6.64918 -5.00102 -1.53745 -1.26215e-005 11.0733 1.65432 0.381636 9.46565 3.50765 
-35.7016 90.6948 -84.1115 -0.658308 4.91 -8.05768 8.91 -6.27 -2.145 2.60271 -39.4576 4.52433 -8.88178e-015 -22.7323 -4.71169e-007 1.33492e-020 -9.6782e-018 0.158057 -1.24345e-014 -22.1464 5.17666e-008 3.42409e-007 50.6305 7.66555 -8.88178e-015 -22.0919 1.36431e-008 3.61482e-020 1.59261e-017 -0.260094 -1.42109e-014 -18.609 1.69696e-008 -0.651653 -13.9956 -0.0799882 5.32907e-015 -6.26232 12.9547 0.0317293 -0.0104452 5.78438e-006 -8.91 -6.27 -2.145 -6.88319 -8.61716 -3.63313 -2.71633e-006 -22.7323 -4.51374e-007 5.49474e-019 6.20902e-017 -1.01406 -4.24549e-013 -22.1464 1.4554e-008 -3.82548e-006 69.1131 8.43422 9.19562e-007 -22.0919 4.09714e-008 2.13727e-022 -1.22461e-018 0.0199993 -3.606e-013 -18.609 -7.98564e-010 -1.08608 8.42658 0.0758235 -6.4416e-011 -6.26232 12.9547 0.00291259 9.13911e-008 -4.64581e-012 2.32301e-006 7.43174 -2.06162 -3.29012 2.92483 2.15897 -1.68772e-005 12.1899 -1.41951 -1.03482 -0.536148 1.87267 -3.87879e-006 11.8846 -1.0903 -1.10385 -0.568303 1.82184 1.84329e-005 10.5137 1.04001 -1.17286 -0.59527 1.76801 7 4.56855 2.0674 -17.0806 0 -5.006 10.7073 -5.08749e-012 -5.32907e-015 -53.4414 -2.5175 13.9074 15.2612 3.95062e-012 1.16365e-008 0 -0.487988 0 12.0443 -1.25056e-012 2.87898e-009 41.5337 54.9632 -47.2506 16.3277 2.84217e-012 -1.18649e-008 -0 0.0203242 0 10.3694 3.12639e-013 2.29894e-008 -6.6798 0.556953 -9.52178 4.34876 -0.798502 4.28243 -13.4772 2.38592 -6.36021 2.51259 -0.536099 0.707454 -13.0629 -0.452216 1.94822 2.54314 9.9476e-013 9.34198e-006 4.76023 0 0 2.66675 -1.27898e-012 -8.21025e-006 -0 0 0 8.82198 0.199729 3.47167 -6.39376 -0.222811 -0.961213 4.22532 4.83737e-011 -0.000262656 -24.7221 0 0 2.65394 2.98712e-011 -0.00016516 0.147497 0 0 1.95822 2.2311e-011 -0.00012217 -0 0 0 8.80988 0.50089 1.30468 -2.22782 -0.0777777 0.708685 4.86325 1.10845e-012 6.11217e-012 -21.1241 0 0 2.76524 3.69482e-013 -1.91784e-007 -45.0126 0 0 2.00563 -8.52651e-013 -1.13863e-006 -0 0 0 8.89376 0.37992 -0.793159 -2.33565 -0.0815401 4.87269 4.53776 8.2423e-013 -0.000282138 -22.1842 0 0 2.30453 0 -0.000143448 -15.0242 0 0 1.92335 -4.26326e-013 -0.00012044 -0 0 0 8.88227 -0.313027 -2.49036 -6.04069 -0.210554 9.77722 3.0441 -2.04636e-012 1.33227e-015 -15.6943 0 0 1.9745 2.84217e-013 -1.43329e-007 -6.68299 0 0 1.66661 1.64846e-012 7.91347e-007 -0 0 0 -7 4.56855 2.0673 26.015 1.8708e-015 18.4529 -10.7073 5.20117e-012 2.04281e-014 46.8559 2.34174 -7.50991 -15.2612 -6.33804e-012 1.86659e-008 2.32778e-016 1.93265 2.32778e-016 -12.0444 -8.46967e-012 -7.98782e-009 -26.6232 41.9802 36.8487 -16.3276 -1.11982e-011 -2.36264e-008 -7.46616e-006 -0.048154 -2.70878e-006 -10.3694 -8.52651e-014 1.64166e-008 -1.84345 -0.211006 13.0584 -4.34838 -0.798501 4.28282 13.4575 2.38793 6.33205 -2.51253 -0.536099 0.707679 12.3133 -0.426679 -1.95397 -2.54159 2.76827e-011 0.0888232 -4.57721 0 0 -2.66512 1.86731e-011 0.0931403 0 0 -0 -8.82167 0.199732 3.47246 6.28617 -0.219077 0.987705 -4.22532 2.47269e-012 0.0001146 24.3786 0 0 -2.65394 1.39266e-012 7.19601e-005 -0.487544 0 0 -1.95822 1.36424e-012 5.30956e-005 0 0 -0 -8.80976 0.500893 1.30547 2.0978 -0.0732402 1.29039 -4.86325 -1.3074e-012 0.000131881 20.8473 0 0 -2.76524 1.76215e-012 7.49854e-005 44.7657 0 0 -2.00563 0 5.43888e-005 0 0 -0 -8.89383 0.379922 -0.792364 2.24662 -0.0784337 -2.85912 -4.53776 4.09273e-012 0.000123049 21.9694 0 0 -2.30453 4.12115e-012 6.24859e-005 14.889 0 0 -1.92335 7.38964e-013 5.21537e-005 0 0 -0 -8.8825 -0.313025 -2.48956 5.84221 -0.20366 -7.76769 -3.0478 -6.65921e-011 8.26466e-005 15.5048 0 0 -1.9769 -3.85683e-011 5.36145e-005 6.68547 0 0 -1.66864 -3.54419e-011 4.5245e-005 0 0 -0 2.32301e-006 11.5156 1.94702 4.60493 -4.16884 -0.236017 -1.26215e-005 11.0733 1.65432 0.737253 9.17394 3.61913 
